<?xml version="1.0" encoding="iso-8859-1"?>
<!-- Generator: Adobe Illustrator 18.0.0, SVG Export Plug-In . SVG Version: 6.00 Build 0)  -->
<!DOCTYPE svg PUBLIC "-//W3C//DTD SVG 1.1//EN" "http://www.w3.org/Graphics/SVG/1.1/DTD/svg11.dtd">
<svg xmlns="http://www.w3.org/2000/svg" xmlns:xlink="http://www.w3.org/1999/xlink" version="1.1" id="Capa_1" x="0px" y="0px" viewBox="0 0 388.646 388.646" style="enable-background:new 0 0 388.646 388.646;" xml:space="preserve" width="512px" height="512px">
<g>
	<path d="M194.323,0C87.173,0,0,87.173,0,194.323s87.173,194.323,194.323,194.323s194.323-87.173,194.323-194.323   S301.474,0,194.323,0z M194.323,379.646C92.136,379.646,9,296.511,9,194.323S92.136,9,194.323,9s185.323,83.136,185.323,185.323   S296.511,379.646,194.323,379.646z" fill="#C59D5F"/>
	<path d="M194.323,45.718c-81.941,0-148.605,66.664-148.605,148.605s66.664,148.605,148.605,148.605s148.606-66.664,148.606-148.605   S276.265,45.718,194.323,45.718z M194.323,333.929c-76.978,0-139.605-62.627-139.605-139.605S117.345,54.718,194.323,54.718   c76.979,0,139.606,62.627,139.606,139.605S271.302,333.929,194.323,333.929z" fill="#C59D5F"/>
	<path d="M279.148,48.849c6.223,3.598,12.278,7.643,17.998,12.021c0.816,0.625,1.778,0.927,2.732,0.927   c1.353,0,2.691-0.607,3.577-1.765c1.511-1.974,1.135-4.798-0.838-6.309c-6.027-4.613-12.407-8.874-18.964-12.665   c-2.152-1.244-4.904-0.508-6.148,1.643C276.261,44.853,276.997,47.604,279.148,48.849z" fill="#C59D5F"/>
	<path d="M365.793,169.236c2.45-0.421,4.095-2.747,3.674-5.196c-6.281-36.612-23.682-69.799-50.321-95.97   c-1.774-1.743-4.622-1.718-6.364,0.057c-1.742,1.772-1.716,4.622,0.056,6.363c25.284,24.84,41.799,56.332,47.759,91.071   c0.376,2.192,2.278,3.74,4.43,3.74C365.28,169.302,365.536,169.28,365.793,169.236z" fill="#C59D5F"/>
	<path d="M371.779,184.833c-0.128-2.483-2.247-4.381-4.727-4.262c-2.482,0.129-4.39,2.245-4.262,4.727   c0.151,2.922,0.228,5.891,0.228,8.826c0,2.485,2.015,4.5,4.5,4.5c2.485,0,4.5-2.015,4.5-4.5   C372.019,191.034,371.938,187.908,371.779,184.833z" fill="#C59D5F"/>
	<path d="M268.839,127.955c0-23.985-19.513-43.498-43.498-43.498c-23.985,0-43.498,19.513-43.498,43.498   c0,20.174,13.806,37.18,32.465,42.076c-0.638,3.16-0.967,6.394-0.967,9.668c0,26.881,21.869,48.75,48.75,48.75   c26.881,0,48.75-21.869,48.75-48.75c0-24.755-18.151-45.096-42.151-48.296C268.78,130.264,268.839,129.117,268.839,127.955z    M190.843,127.955c0-19.022,15.476-34.498,34.498-34.498c19.023,0,34.498,15.476,34.498,34.498   c0,19.022-15.476,34.498-34.498,34.498C206.319,162.453,190.843,146.978,190.843,127.955z M301.841,179.699   c0,21.918-17.831,39.75-39.75,39.75c-21.918,0-39.75-17.832-39.75-39.75c0-2.818,0.31-5.594,0.887-8.3   c0.701,0.034,1.404,0.054,2.113,0.054c15.263,0,28.706-7.908,36.471-19.836c-0.108,0.387-0.185,0.786-0.185,1.207   c0,2.485,2.015,4.5,4.5,4.5c2.3,0,4.565,0.347,6.733,1.031c0.451,0.143,0.907,0.21,1.355,0.21c1.911,0,3.685-1.228,4.291-3.146   c0.748-2.37-0.567-4.898-2.937-5.646c-3.046-0.962-6.223-1.449-9.442-1.449c-1.174,0-2.233,0.46-3.034,1.196   c1.658-2.892,2.995-5.989,3.958-9.246C286.827,142.7,301.841,159.37,301.841,179.699z" fill="#C59D5F"/>
	<path d="M245.368,127.955c0,3.336-0.835,6.635-2.415,9.542c-1.187,2.184-0.378,4.916,1.806,6.103   c0.683,0.371,1.419,0.547,2.145,0.547c1.596,0,3.142-0.851,3.958-2.352c2.294-4.221,3.506-9.007,3.506-13.839   c0-6.043-1.84-11.835-5.32-16.752c-1.436-2.03-4.245-2.51-6.273-1.073c-2.028,1.436-2.509,4.244-1.073,6.272   C244.1,119.791,245.368,123.785,245.368,127.955z" fill="#C59D5F"/>
	<path d="M231.375,108.854c0.451,0.142,0.907,0.209,1.355,0.209c1.911,0,3.685-1.228,4.29-3.147c0.748-2.37-0.567-4.897-2.938-5.646   c-2.821-0.89-5.763-1.341-8.742-1.341c-2.485,0-4.5,2.015-4.5,4.5c0,2.485,2.015,4.5,4.5,4.5   C227.401,107.929,229.431,108.239,231.375,108.854z" fill="#C59D5F"/>
	<path d="M288.479,179.676c0,3.723-0.932,7.405-2.695,10.652c-1.186,2.184-0.377,4.916,1.807,6.102   c0.683,0.371,1.418,0.547,2.144,0.547c1.596,0,3.143-0.852,3.958-2.354c2.477-4.561,3.786-9.73,3.786-14.947   c0-6.525-1.987-12.782-5.746-18.094c-1.435-2.027-4.243-2.509-6.273-1.073c-2.028,1.436-2.509,4.243-1.074,6.273   C287.064,170.564,288.479,175.023,288.479,179.676z" fill="#C59D5F"/>
	<path d="M173.854,224.258c-2.496-10.495-5.326-22.39-3.136-35.871c2.919-17.975,5.546-38.494,2.895-54.401   c-2.917-17.506-12.057-27.625-27.163-30.078c-2.254-0.366-4.554-0.552-6.837-0.552c-28.971,0-55.594,29.406-61.927,68.401   c-4.516,27.804,7.329,69.7,25.865,91.489c9.428,11.083,20.321,16.941,31.501,16.941c4.86,0,9.794-1.097,14.665-3.261   C182.878,262.193,178.495,243.767,173.854,224.258z M146.061,268.702c-12.577,5.587-24.626,1.679-35.656-11.287   c-18.563-21.822-27.461-61.896-23.836-84.215c5.633-34.688,28.437-60.845,53.043-60.845c1.801,0,3.616,0.146,5.395,0.435   c11.185,1.816,17.454,9.021,19.729,22.675c2.437,14.62-0.099,34.228-2.901,51.479c-2.478,15.258,0.573,28.082,3.264,39.398   C169.647,245.462,172.393,257.004,146.061,268.702z" fill="#C59D5F"/>
	<path d="M158.96,163.291c-17.718-12.655-35.004-11.532-46.384-8.359c-12.182,3.395-20.204,9.739-20.54,10.008   c-1.938,1.55-2.25,4.372-0.705,6.314c0.888,1.114,2.199,1.695,3.522,1.695c0.981,0,1.969-0.319,2.796-0.975   c1.123-0.89,27.817-21.547,56.078-1.358c2.023,1.445,4.834,0.975,6.277-1.047C161.451,167.546,160.983,164.736,158.96,163.291z" fill="#C59D5F"/>
	<path d="M153.858,206.427c-22.796-11.399-55.229,5.321-56.598,6.038c-2.201,1.152-3.049,3.869-1.898,6.07   c0.803,1.537,2.37,2.415,3.992,2.415c0.702,0,1.414-0.164,2.079-0.511c0.295-0.154,29.736-15.293,48.4-5.964   c2.222,1.11,4.926,0.21,6.038-2.012C156.981,210.241,156.081,207.538,153.858,206.427z" fill="#C59D5F"/>
	<path d="M282.423,251.233c-1.88-0.707-4.005-0.083-5.203,1.531c-9.088,12.264-21.861,20.774-38.025,25.404   c4.018-11.929,2.72-26.862-3.537-47.408c-0.585-1.924-2.402-3.25-4.388-3.188c-2.011,0.037-3.752,1.403-4.267,3.348   c-12.014,45.383-67.128,57.225-67.679,57.338c-1.557,0.317-2.83,1.432-3.352,2.932c-0.521,1.5-0.213,3.164,0.81,4.378   c7.173,8.507,18.816,13.191,32.786,13.191c5.137,0,10.389-0.662,15.382-1.852c9.464,5.782,21.902,9.02,33.004,9.02   c5.26,0,10.22-0.727,14.419-2.253c20.872-7.59,30.11-23.812,32.947-57.856C285.488,253.814,284.305,251.942,282.423,251.233z    M169.547,294.78c5.98-1.901,14.526-5.13,23.605-10.215c17.253-9.665,29.976-22.514,37.427-37.649   c4.919,23.512-0.27,34.284-10.123,43.058c-6.47,5.762-19.171,9.785-30.887,9.785C181.689,299.759,174.823,298.025,169.547,294.78z    M249.299,305.215c-7.634,2.776-20.838,2.296-32.474-2.397c3.727-1.745,7.019-3.81,9.616-6.123c2.824-2.514,5.232-5.14,7.251-7.922   c16.418-3.336,30.128-9.955,40.924-19.763C270.489,292.632,261.688,300.71,249.299,305.215z" fill="#C59D5F"/>
</g>
<g>
</g>
<g>
</g>
<g>
</g>
<g>
</g>
<g>
</g>
<g>
</g>
<g>
</g>
<g>
</g>
<g>
</g>
<g>
</g>
<g>
</g>
<g>
</g>
<g>
</g>
<g>
</g>
<g>
</g>
</svg>
