<?xml version="1.0" encoding="iso-8859-1"?>
<!-- Generator: Adobe Illustrator 18.0.0, SVG Export Plug-In . SVG Version: 6.00 Build 0)  -->
<!DOCTYPE svg PUBLIC "-//W3C//DTD SVG 1.1//EN" "http://www.w3.org/Graphics/SVG/1.1/DTD/svg11.dtd">
<svg xmlns="http://www.w3.org/2000/svg" xmlns:xlink="http://www.w3.org/1999/xlink" version="1.1" id="Capa_1" x="0px" y="0px" viewBox="0 0 293.962 293.962" style="enable-background:new 0 0 293.962 293.962;" xml:space="preserve" width="512px" height="512px">
<g>
	<path d="M235.039,117.336L215.677,3.744C215.309,1.582,213.435,0,211.241,0H82.721c-2.193,0-4.067,1.582-4.436,3.744   L58.954,117.157c-0.006,0.027-0.009,0.054-0.014,0.08l-0.017,0.098c-4.431,25.998,2.783,52.468,19.793,72.622   c16.039,19.005,39.079,30.362,63.767,31.597v63.408H99.701c-2.485,0-4.5,2.015-4.5,4.5c0,2.485,2.015,4.5,4.5,4.5h94.561   c2.485,0,4.5-2.015,4.5-4.5c0-2.485-2.015-4.5-4.5-4.5h-42.778v-63.408c24.686-1.236,47.723-12.593,63.762-31.596   C232.255,169.804,239.47,143.333,235.039,117.336z M86.519,9h120.924l17.827,104.591h-10.243c-0.08-0.533-0.147-1.066-0.238-1.599   l-8.629-50.625c-0.417-2.45-2.742-4.096-5.192-3.68c-2.45,0.417-4.098,2.742-3.68,5.192l8.628,50.625   c0.005,0.029,0.008,0.058,0.013,0.087H68.692L86.519,9z M208.368,184.153c-15.292,18.119-37.658,28.513-61.367,28.518   c-0.006,0-0.011-0.002-0.017-0.002c-0.006,0-0.011,0.002-0.017,0.002c-23.71-0.004-46.079-10.398-61.372-28.518   c-14.481-17.157-21.06-39.404-18.341-61.563h139.629c0.225,5.248-0.124,10.481-1.057,15.64c-0.442,2.446,1.182,4.787,3.627,5.229   c0.271,0.049,0.54,0.073,0.806,0.073c2.135,0,4.029-1.525,4.423-3.7c1.029-5.691,1.431-11.46,1.21-17.242h10.816   C229.428,144.749,222.848,166.996,208.368,184.153z" fill="#C59D5F"/>
	<path d="M193.801,42.416c0.374,2.194,2.277,3.745,4.431,3.745c0.251,0,0.506-0.021,0.761-0.064c2.45-0.417,4.098-2.742,3.68-5.192   l-3.029-17.772c-0.417-2.45-2.745-4.096-5.192-3.68c-2.45,0.417-4.098,2.742-3.68,5.192L193.801,42.416z" fill="#C59D5F"/>
	<path d="M196.219,156.458h-6.092c-2.485,0-4.5,2.015-4.5,4.5c0,2.485,2.015,4.5,4.5,4.5h6.092c2.485,0,4.5-2.015,4.5-4.5   C200.719,158.472,198.705,156.458,196.219,156.458z" fill="#C59D5F"/>
	<path d="M170.744,156.458h-20.493c-2.485,0-4.5,2.015-4.5,4.5c0,2.485,2.015,4.5,4.5,4.5h20.493c2.485,0,4.5-2.015,4.5-4.5   C175.244,158.472,173.229,156.458,170.744,156.458z" fill="#C59D5F"/>
	<path d="M149.697,176.672h-24.369c-2.485,0-4.5,2.015-4.5,4.5c0,2.485,2.015,4.5,4.5,4.5h24.369c2.485,0,4.5-2.015,4.5-4.5   C154.197,178.687,152.183,176.672,149.697,176.672z" fill="#C59D5F"/>
	<path d="M139.797,140.743c0-2.485-2.015-4.5-4.5-4.5h-22.154c-2.485,0-4.5,2.015-4.5,4.5c0,2.485,2.015,4.5,4.5,4.5h22.154   C137.783,145.243,139.797,143.228,139.797,140.743z" fill="#C59D5F"/>
	<path d="M97.082,136.243h-4.984c-2.485,0-4.5,2.015-4.5,4.5c0,2.485,2.015,4.5,4.5,4.5h4.984c2.485,0,4.5-2.015,4.5-4.5   C101.582,138.257,99.568,136.243,97.082,136.243z" fill="#C59D5F"/>
</g>
<g>
</g>
<g>
</g>
<g>
</g>
<g>
</g>
<g>
</g>
<g>
</g>
<g>
</g>
<g>
</g>
<g>
</g>
<g>
</g>
<g>
</g>
<g>
</g>
<g>
</g>
<g>
</g>
<g>
</g>
</svg>
